<?xml version="1.0" encoding="utf-8"?>
<!-- Generator: Adobe Illustrator 22.1.0, SVG Export Plug-In . SVG Version: 6.00 Build 0)  -->
<svg xmlns="http://www.w3.org/2000/svg" xmlns:xlink="http://www.w3.org/1999/xlink" version="1.1" id="Layer_1" x="0px" y="0px" viewBox="0 0 512 512" style="enable-background:new 0 0 512 512;" xml:space="preserve" width="512" height="512">
<style type="text/css">
	.st0{fill:#FF624B;}
	.st1{fill:#FFC34C;}
	.st2{fill:#F9BB32;}
	.st3{fill:#DB9C2E;}
	.st4{fill:#FF4B34;}
	.st5{fill:none;stroke:#FF9079;stroke-width:12;stroke-linecap:round;stroke-linejoin:round;stroke-miterlimit:10;}
	.st6{fill:#FCE575;}
	.st7{fill:#FFD551;}
	.st8{fill:none;stroke:#FFF4C1;stroke-width:12;stroke-linecap:round;stroke-linejoin:round;stroke-miterlimit:10;}
	.st9{fill:#FFB74B;}
	.st10{fill:#EACF32;}
	.st11{fill:none;stroke:#FF4B34;stroke-width:12;stroke-linecap:round;stroke-linejoin:round;}
	.st12{fill:none;stroke:#FF4B34;stroke-width:12;stroke-linecap:round;stroke-linejoin:round;stroke-dasharray:11.1745,27.9363;}
	.st13{fill:none;stroke:#FF4B34;stroke-width:12;stroke-linecap:round;stroke-linejoin:round;stroke-dasharray:6.0543,15.1356;}
	.st14{fill:none;stroke:#FF4B34;stroke-width:12;stroke-linecap:round;stroke-linejoin:round;stroke-dasharray:11.9551,29.8877;}
	.st15{fill:none;stroke:#FF4B34;stroke-width:12;stroke-linecap:round;stroke-linejoin:round;stroke-dasharray:7.134,17.8351;}
	.st16{fill:#99AF17;}
	.st17{fill:#CCC033;}
	.st18{fill:none;stroke:#FCDA4F;stroke-width:12;stroke-linecap:round;stroke-linejoin:round;stroke-miterlimit:10;}
	.st19{fill:#FFA730;}
	.st20{fill:#FFEACF;}
	.st21{fill:#FFD59A;}
	.st22{fill:#FFDF74;}
	.st23{fill:#A56021;}
	.st24{fill:#8C4C17;}
	.st25{fill:#FFEA63;}
	.st26{fill:#E58D23;}
	.st27{fill:none;stroke:#FFC34C;stroke-width:12;stroke-linecap:round;stroke-linejoin:round;stroke-miterlimit:10;}
	.st28{fill:none;stroke:#FCF9DE;stroke-width:12;stroke-linecap:round;stroke-linejoin:round;stroke-miterlimit:10;}
	.st29{fill:#FCDA4F;}
	.st30{fill:#FFF4C1;}
	.st31{fill:#BF6C0D;}
	.st32{fill:none;stroke:#FFA730;stroke-width:12;stroke-linecap:round;stroke-linejoin:round;stroke-miterlimit:10;}
	.st33{fill:none;stroke:#FFDF74;stroke-width:12;stroke-linecap:round;stroke-linejoin:round;stroke-miterlimit:10;}
	.st34{fill:none;stroke:#A56021;stroke-width:12;stroke-linecap:round;stroke-linejoin:round;stroke-miterlimit:10;}
	.st35{fill:#FF9079;}
	.st36{fill:none;stroke:#FFD59A;stroke-width:12;stroke-linecap:round;stroke-linejoin:round;stroke-miterlimit:10;}
	.st37{fill:none;stroke:#99AF17;stroke-width:12;stroke-linecap:round;stroke-linejoin:round;stroke-miterlimit:10;}
	.st38{fill:none;stroke:#BF6C0D;stroke-width:12;stroke-linecap:round;stroke-linejoin:round;stroke-miterlimit:10;}
	.st39{fill:none;stroke:#FFD551;stroke-width:12;stroke-linecap:round;stroke-linejoin:round;stroke-miterlimit:10;}
	.st40{fill:none;stroke:#EACF32;stroke-width:12;stroke-linecap:round;stroke-linejoin:round;stroke-miterlimit:10;}
	.st41{fill:none;stroke:#FF624B;stroke-width:15;stroke-linecap:round;stroke-linejoin:round;stroke-miterlimit:10;}
	.st42{fill:none;stroke:#FF4B34;stroke-width:12;stroke-linecap:round;stroke-linejoin:round;stroke-miterlimit:10;}
	.st43{fill:none;stroke:#000000;stroke-width:8;stroke-linecap:round;stroke-linejoin:round;stroke-miterlimit:10;}
	.st44{fill:none;stroke:#8C4C17;stroke-width:20;stroke-linecap:round;stroke-linejoin:round;stroke-miterlimit:10;}
	.st45{fill:none;stroke:#F9BB32;stroke-width:20;stroke-linecap:round;stroke-linejoin:round;stroke-miterlimit:10;}
	
		.st46{fill:none;stroke:#FF4B34;stroke-width:12;stroke-linecap:round;stroke-linejoin:round;stroke-miterlimit:10;stroke-dasharray:12,30;}
	.st47{fill:none;stroke:#99AF17;stroke-width:20;stroke-linecap:round;stroke-linejoin:round;stroke-miterlimit:10;}
	.st48{fill:none;stroke:#FFD59A;stroke-width:8;stroke-linecap:round;stroke-linejoin:round;stroke-miterlimit:10;}
	.st49{fill:none;stroke:#FFD59A;stroke-width:5;stroke-linecap:round;stroke-linejoin:round;stroke-miterlimit:10;}
	.st50{fill:none;stroke:#FFA730;stroke-width:15;stroke-linecap:round;stroke-linejoin:round;stroke-miterlimit:10;}
	.st51{fill:none;stroke:#FF4B34;stroke-width:18;stroke-linecap:round;stroke-linejoin:round;stroke-miterlimit:10;}
	.st52{fill:none;stroke:#FFEA63;stroke-width:12;stroke-linecap:round;stroke-linejoin:round;stroke-miterlimit:10;}
	.st53{fill:none;stroke:#FFC34C;stroke-width:20;stroke-linecap:round;stroke-linejoin:round;stroke-miterlimit:10;}
	.st54{fill:none;stroke:#A56021;stroke-width:18;stroke-linecap:round;stroke-linejoin:round;stroke-miterlimit:10;}
	.st55{fill:none;stroke:#FF4B34;stroke-width:15;stroke-linecap:round;stroke-linejoin:round;stroke-miterlimit:10;}
	.st56{fill:none;stroke:#BF6C0D;stroke-width:4;stroke-linecap:round;stroke-linejoin:round;stroke-miterlimit:10;}
</style>
<g>
	<path class="st6" d="M476.729,487.055H35.271c-5.523,0-10-4.477-10-10V194.853c0-5.523,4.477-10,10-10h441.459   c5.523,0,10,4.477,10,10v282.203C486.729,482.578,482.252,487.055,476.729,487.055z"/>
	<path class="st7" d="M89.271,477.055V194.853c0-5.523,4.477-10,10-10h-64c-5.523,0-10,4.477-10,10v282.203c0,5.523,4.477,10,10,10   h64C93.748,487.055,89.271,482.578,89.271,477.055z"/>
	<path class="st7" d="M321.537,319.866l-47.659,28.142c-11.253,6.645-25.23,6.645-36.483,0l-46.774-27.62L30.323,480.687   c-1.996,1.996-0.579,5.408,2.243,5.404l446.878-0.68c2.818-0.004,4.226-3.411,2.233-5.404L321.537,319.866z"/>
	<path class="st1" d="M25.27,195.403v26.254l212.488,125.472c11.253,6.645,25.23,6.645,36.483,0l212.488-125.472v-26.252   c0-5.828-4.724-10.552-10.552-10.552H35.82C29.994,184.853,25.27,189.576,25.27,195.403z"/>
	<path class="st2" d="M88.961,221.656v-26.252c0-5.828,4.724-10.552,10.552-10.552h-63.69c-5.828,0-10.552,4.724-10.552,10.552   v26.252l212.488,125.472c11.253,6.645,25.23,6.645,36.483,0l13.604-8.033L88.961,221.656z"/>
	<path class="st1" d="M96.615,485.994c-4.503-1.964-7.654-6.45-7.654-11.676v-52.268l-58.638,58.638   c-0.898,0.898-1.1,2.081-0.8,3.111c1.065,0.954,2.284,1.737,3.626,2.292L96.615,485.994z"/>
	<path class="st0" d="M169.326,137.913h45.333V251.2c0,2.496,2.023,4.52,4.52,4.52h73.642c2.496,0,4.52-2.023,4.52-4.52V137.913   h45.333c3.833,0,5.926-4.471,3.471-7.414L259.471,26.57c-1.807-2.167-5.135-2.167-6.942,0l-86.674,103.929   C163.401,133.442,165.494,137.913,169.326,137.913z"/>
	<g>
		<path class="st4" d="M260.763,234.927c-2.496,0-4.52-2.023-4.52-4.519V117.12h-45.333c-3.833,0-5.926-4.471-3.471-7.414    l60.682-72.763l-8.651-10.373c-1.807-2.167-5.135-2.167-6.942,0l-86.674,103.929c-2.455,2.943-0.362,7.414,3.471,7.414h45.333    V251.2c0,2.496,2.023,4.519,4.52,4.519h73.642c2.496,0,4.52-2.023,4.52-4.519v-16.273H260.763z"/>
	</g>
	<circle class="st1" cx="126.906" cy="449.157" r="19.536"/>
	<line class="st8" x1="460.247" y1="279.64" x2="460.247" y2="420.428"/>
	<line class="st5" x1="269.515" y1="62.826" x2="316.297" y2="118.965"/>
</g>
</svg>
